<?xml version="1.0" encoding="UTF-8"?>
<svg version="1.1" xmlns="http://www.w3.org/2000/svg" width="200" height="200">
<path d="M0 0 C66 0 132 0 200 0 C200 66 200 132 200 200 C134 200 68 200 0 200 C0 134 0 68 0 0 Z " fill="#000000" transform="translate(0,0)"/>
<path d="M0 0 C0.33 0 0.66 0 1 0 C2.13679704 13.89418605 -0.46004095 23.64184746 -9.66235352 34.68286133 C-24.86131719 51.77926817 -46.91431138 62.65165127 -68.29296875 69.76269531 C-92.92588002 77.9641181 -106.65819184 88.08882694 -118.875 111.625 C-119.99231765 113.76567904 -121.11445435 115.9038521 -122.2421875 118.0390625 C-122.96704346 119.43439209 -122.96704346 119.43439209 -123.70654297 120.85791016 C-125 123 -125 123 -127 124 C-124.51562787 110.08751609 -119.07807027 97.54238103 -111 86 C-110.49210937 85.26394531 -109.98421875 84.52789062 -109.4609375 83.76953125 C-98.66423945 69.89992683 -80.64685266 64.1082512 -64.73046875 58.48828125 C-34.57533545 47.75695609 -13.81319663 28.75999907 0 0 Z " fill="#F3C12C" transform="translate(163,36)"/>
<path d="M0 0 C0.495 0.99 0.495 0.99 1 2 C-3.4843993 12.26345781 -10.59621157 18.11771941 -20.4375 22.8125 C-21.04585693 23.10278076 -21.65421387 23.39306152 -22.28100586 23.69213867 C-31.5351151 27.85323409 -40.4361939 28.34017823 -50.5 28.3125 C-51.67175781 28.32861328 -52.84351563 28.34472656 -54.05078125 28.36132812 C-61.03638724 28.36524822 -66.51538192 27.62571608 -73 25 C-73 24.67 -73 24.34 -73 24 C-72.10917725 23.89977539 -71.21835449 23.79955078 -70.30053711 23.69628906 C-66.91657582 23.3100511 -63.53410735 22.91360285 -60.15209961 22.51074219 C-58.70301443 22.34013002 -57.25347642 22.17331048 -55.8034668 22.01074219 C-42.6468924 20.53114132 -29.45601481 18.49050682 -17.625 12.1875 C-16.96363037 11.84710693 -16.30226074 11.50671387 -15.62084961 11.15600586 C-9.91509038 8.13563889 -4.58386537 4.58386537 0 0 Z " fill="#F0BA19" transform="translate(141,136)"/>
<path d="M0 0 C0.33 0 0.66 0 1 0 C2.31693289 10.24281134 -1.09982357 18.64971431 -7.28369141 26.66357422 C-16.88345755 38.04758108 -30.25206251 46.35554224 -45 49 C-50.00612812 49.38118951 -54.98808496 49.24955594 -60 49 C-60 48.34 -60 47.68 -60 47 C-58.86304687 46.64808594 -57.72609375 46.29617187 -56.5546875 45.93359375 C-42.72468274 41.55426776 -30.17796425 36.53349237 -19 27 C-18.175 26.37480469 -17.35 25.74960938 -16.5 25.10546875 C-8.74993034 18.57845696 -4.16859577 9.04774765 0 0 Z " fill="#F4BF23" transform="translate(163,85)"/>
<path d="M0 0 C-1.20842856 4.43090471 -2.51668565 6.98112756 -6 10 C-5.71872579 8.51882199 -5.42466268 7.04006751 -5.125 5.5625 C-4.96257813 4.73878906 -4.80015625 3.91507813 -4.6328125 3.06640625 C-4.42398438 2.38449219 -4.21515625 1.70257813 -4 1 C-2 0 -2 0 0 0 Z " fill="#CF9B00" transform="translate(42,150)"/>
</svg>
